<?xml version="1.0" standalone="no"?>
<!DOCTYPE svg PUBLIC "-//W3C//DTD SVG 20010904//EN"
 "http://www.w3.org/TR/2001/REC-SVG-20010904/DTD/svg10.dtd">
<svg version="1.0" xmlns="http://www.w3.org/2000/svg"
 width="512.000000pt" height="512.000000pt" viewBox="0 0 512.000000 512.000000"
 preserveAspectRatio="xMidYMid meet">
<metadata>
Created by potrace 1.11, written by Peter Selinger 2001-2013
</metadata>
<g transform="translate(0.000000,512.000000) scale(0.100000,-0.100000)"
fill="#000000" stroke="none">
<path d="M408 5101 c-183 -59 -333 -209 -388 -389 -20 -63 -20 -104 -20 -2147
0 -2042 0 -2084 20 -2146 53 -175 190 -315 378 -388 l67 -26 2080 0 2080 0 70
22 c186 59 333 204 398 393 l22 65 3 2055 c2 2015 2 2056 -18 2133 -50 199
-196 358 -389 424 l-66 22 -2090 0 c-1994 0 -2093 -1 -2147 -18z"/>
</g>
</svg>
